<svg id="svg" version="1.1" xmlns="http://www.w3.org/2000/svg" xmlns:xlink="http://www.w3.org/1999/xlink" width="400" height="400" viewBox="0, 0, 400,400"><g id="svgg"><path id="path0" d="M182.031 0.531 C 181.387 0.778,180.035 1.726,179.027 2.639 C 174.920 6.357,175.000 5.397,175.000 50.725 L 175.000 92.934 126.229 93.147 C 71.851 93.384,75.838 92.976,71.533 98.736 C 68.891 102.270,68.679 131.670,71.259 136.661 C 74.681 143.280,71.947 142.969,126.746 142.969 L 175.000 142.969 175.000 267.226 C 175.000 402.216,174.710 393.379,179.284 397.656 C 182.287 400.464,215.042 401.125,219.343 398.465 C 225.538 394.632,224.994 407.256,224.997 267.383 L 225.000 142.969 273.254 142.969 C 328.053 142.969,325.319 143.280,328.741 136.661 C 331.321 131.670,331.109 102.270,328.467 98.736 C 324.162 92.976,328.149 93.384,273.771 93.147 L 225.000 92.934 225.000 50.725 C 225.000 5.053,225.125 6.467,220.716 2.344 L 218.627 0.391 200.915 0.236 C 191.174 0.151,182.676 0.284,182.031 0.531 " stroke="none" fill="#000000" fill-rule="evenodd"></path></g></svg>